<mxfile host="app.diagrams.net" modified="2023-08-17T20:20:25.284Z" agent="Mozilla/5.0 (Windows NT 10.0; Win64; x64) AppleWebKit/537.36 (KHTML, like Gecko) Chrome/114.0.0.0 YaBrowser/23.7.2.765 Yowser/2.5 Safari/537.36" etag="4Yzb9xfdyBMfeeLzJP-o" version="21.6.8" type="github">
  <diagram id="C5RBs43oDa-KdzZeNtuy" name="Page-1">
    <mxGraphModel dx="1386" dy="767" grid="1" gridSize="10" guides="1" tooltips="1" connect="1" arrows="1" fold="1" page="1" pageScale="1" pageWidth="827" pageHeight="1169" math="0" shadow="0">
      <root>
        <mxCell id="WIyWlLk6GJQsqaUBKTNV-0" />
        <mxCell id="WIyWlLk6GJQsqaUBKTNV-1" parent="WIyWlLk6GJQsqaUBKTNV-0" />
        <mxCell id="czhrimL0n0Uo2CRbuoZP-21" value="&amp;nbsp;DataBase (вертикальный шардинг)" style="swimlane;whiteSpace=wrap;html=1;" vertex="1" parent="WIyWlLk6GJQsqaUBKTNV-1">
          <mxGeometry x="30" y="320" width="430" height="720" as="geometry" />
        </mxCell>
        <mxCell id="czhrimL0n0Uo2CRbuoZP-78" value="&lt;h1 style=&quot;font-size: 16px;&quot;&gt;Shops&lt;/h1&gt;" style="rounded=1;whiteSpace=wrap;html=1;labelPosition=center;verticalLabelPosition=middle;align=center;verticalAlign=middle;fontSize=16;" vertex="1" parent="czhrimL0n0Uo2CRbuoZP-21">
          <mxGeometry x="19.5" y="500" width="351" height="30" as="geometry" />
        </mxCell>
        <mxCell id="czhrimL0n0Uo2CRbuoZP-76" value="&lt;h1 style=&quot;font-size: 16px;&quot;&gt;Books&lt;/h1&gt;" style="rounded=1;whiteSpace=wrap;html=1;labelPosition=center;verticalLabelPosition=middle;align=center;verticalAlign=middle;fontSize=16;" vertex="1" parent="czhrimL0n0Uo2CRbuoZP-21">
          <mxGeometry x="19.5" y="280" width="351" height="30" as="geometry" />
        </mxCell>
        <mxCell id="czhrimL0n0Uo2CRbuoZP-73" value="&lt;h1 style=&quot;font-size: 16px;&quot;&gt;Users&lt;/h1&gt;" style="rounded=1;whiteSpace=wrap;html=1;labelPosition=center;verticalLabelPosition=middle;align=center;verticalAlign=middle;fontSize=16;" vertex="1" parent="czhrimL0n0Uo2CRbuoZP-21">
          <mxGeometry x="19.5" y="50" width="351" height="40" as="geometry" />
        </mxCell>
        <mxCell id="czhrimL0n0Uo2CRbuoZP-87" value="" style="edgeStyle=orthogonalEdgeStyle;rounded=0;orthogonalLoop=1;jettySize=auto;html=1;entryX=-0.008;entryY=0.165;entryDx=0;entryDy=0;entryPerimeter=0;" edge="1" parent="czhrimL0n0Uo2CRbuoZP-21" source="czhrimL0n0Uo2CRbuoZP-22" target="czhrimL0n0Uo2CRbuoZP-80">
          <mxGeometry relative="1" as="geometry" />
        </mxCell>
        <mxCell id="czhrimL0n0Uo2CRbuoZP-22" value="Books_tb1" style="swimlane;childLayout=stackLayout;horizontal=1;startSize=50;horizontalStack=0;rounded=1;fontSize=14;fontStyle=0;strokeWidth=2;resizeParent=0;resizeLast=1;shadow=0;dashed=0;align=center;arcSize=4;whiteSpace=wrap;html=1;" vertex="1" parent="czhrimL0n0Uo2CRbuoZP-21">
          <mxGeometry x="40" y="324" width="130" height="140" as="geometry">
            <mxRectangle x="40" y="90" width="130" height="50" as="alternateBounds" />
          </mxGeometry>
        </mxCell>
        <mxCell id="czhrimL0n0Uo2CRbuoZP-23" value="&lt;div&gt;&lt;b&gt;id &lt;/b&gt;,&lt;/div&gt;&lt;div&gt;BookName ,&lt;span style=&quot;&quot;&gt;&lt;/span&gt;&lt;/div&gt;Publisher&lt;span style=&quot;background-color: initial;&quot;&gt;,&lt;/span&gt;&lt;br&gt;&lt;div&gt;Category,&lt;/div&gt;&lt;div&gt;Author&lt;/div&gt;&lt;div&gt;&lt;br&gt;&lt;/div&gt;" style="align=left;strokeColor=none;fillColor=none;spacingLeft=4;fontSize=12;verticalAlign=top;resizable=0;rotatable=0;part=1;html=1;" vertex="1" parent="czhrimL0n0Uo2CRbuoZP-22">
          <mxGeometry y="50" width="130" height="120" as="geometry" />
        </mxCell>
        <mxCell id="czhrimL0n0Uo2CRbuoZP-30" value="" style="rounded=0;whiteSpace=wrap;html=1;" vertex="1" parent="czhrimL0n0Uo2CRbuoZP-22">
          <mxGeometry y="170" width="130" height="-30" as="geometry" />
        </mxCell>
        <mxCell id="czhrimL0n0Uo2CRbuoZP-19" value="Shops_tb1" style="swimlane;childLayout=stackLayout;horizontal=1;startSize=50;horizontalStack=0;rounded=1;fontSize=14;fontStyle=0;strokeWidth=2;resizeParent=0;resizeLast=1;shadow=0;dashed=0;align=center;arcSize=4;whiteSpace=wrap;html=1;" vertex="1" parent="czhrimL0n0Uo2CRbuoZP-21">
          <mxGeometry x="50" y="560" width="130" height="130" as="geometry">
            <mxRectangle x="40" y="90" width="130" height="50" as="alternateBounds" />
          </mxGeometry>
        </mxCell>
        <mxCell id="czhrimL0n0Uo2CRbuoZP-20" value="&lt;div&gt;id ,&lt;/div&gt;&lt;div&gt;Name ,&lt;span style=&quot;&quot;&gt;&lt;/span&gt;&lt;/div&gt;&lt;div&gt;Сity,&lt;/div&gt;Address&lt;span style=&quot;background-color: initial;&quot;&gt;,&lt;br&gt;Manager&lt;br&gt;&lt;br&gt;&lt;/span&gt;" style="align=left;strokeColor=none;fillColor=none;spacingLeft=4;fontSize=12;verticalAlign=top;resizable=0;rotatable=0;part=1;html=1;" vertex="1" parent="czhrimL0n0Uo2CRbuoZP-19">
          <mxGeometry y="50" width="130" height="80" as="geometry" />
        </mxCell>
        <mxCell id="czhrimL0n0Uo2CRbuoZP-24" value="Users_tbl3" style="swimlane;childLayout=stackLayout;horizontal=1;startSize=50;horizontalStack=0;rounded=1;fontSize=14;fontStyle=0;strokeWidth=2;resizeParent=0;resizeLast=1;shadow=0;dashed=0;align=center;arcSize=4;whiteSpace=wrap;html=1;" vertex="1" parent="czhrimL0n0Uo2CRbuoZP-21">
          <mxGeometry x="164" y="120" width="90" height="110" as="geometry">
            <mxRectangle x="40" y="90" width="130" height="50" as="alternateBounds" />
          </mxGeometry>
        </mxCell>
        <mxCell id="czhrimL0n0Uo2CRbuoZP-25" value="&lt;div&gt;id ,&lt;/div&gt;&lt;div&gt;&lt;span style=&quot;background-color: initial;&quot;&gt;Email,&lt;/span&gt;&lt;br&gt;&lt;/div&gt;&lt;div&gt;&lt;span style=&quot;background-color: initial;&quot;&gt;Password,&lt;br&gt;&lt;/span&gt;&lt;/div&gt;" style="align=left;strokeColor=none;fillColor=none;spacingLeft=4;fontSize=12;verticalAlign=top;resizable=0;rotatable=0;part=1;html=1;" vertex="1" parent="czhrimL0n0Uo2CRbuoZP-24">
          <mxGeometry y="50" width="90" height="60" as="geometry" />
        </mxCell>
        <mxCell id="czhrimL0n0Uo2CRbuoZP-26" value="Users_tbl3" style="swimlane;childLayout=stackLayout;horizontal=1;startSize=50;horizontalStack=0;rounded=1;fontSize=14;fontStyle=0;strokeWidth=2;resizeParent=0;resizeLast=1;shadow=0;dashed=0;align=center;arcSize=4;whiteSpace=wrap;html=1;" vertex="1" parent="czhrimL0n0Uo2CRbuoZP-21">
          <mxGeometry x="290" y="120" width="90" height="100" as="geometry">
            <mxRectangle x="40" y="90" width="130" height="50" as="alternateBounds" />
          </mxGeometry>
        </mxCell>
        <mxCell id="czhrimL0n0Uo2CRbuoZP-27" value="&lt;div&gt;id ,&lt;/div&gt;&lt;div&gt;&lt;span style=&quot;background-color: initial;&quot;&gt;Company&lt;/span&gt;&lt;br&gt;&lt;/div&gt;" style="align=left;strokeColor=none;fillColor=none;spacingLeft=4;fontSize=12;verticalAlign=top;resizable=0;rotatable=0;part=1;html=1;" vertex="1" parent="czhrimL0n0Uo2CRbuoZP-26">
          <mxGeometry y="50" width="90" height="50" as="geometry" />
        </mxCell>
        <mxCell id="czhrimL0n0Uo2CRbuoZP-52" value="Shops_tb2" style="swimlane;childLayout=stackLayout;horizontal=1;startSize=50;horizontalStack=0;rounded=1;fontSize=14;fontStyle=0;strokeWidth=2;resizeParent=0;resizeLast=1;shadow=0;dashed=0;align=center;arcSize=4;whiteSpace=wrap;html=1;" vertex="1" parent="czhrimL0n0Uo2CRbuoZP-21">
          <mxGeometry x="220" y="560" width="130" height="110" as="geometry">
            <mxRectangle x="40" y="90" width="130" height="50" as="alternateBounds" />
          </mxGeometry>
        </mxCell>
        <mxCell id="czhrimL0n0Uo2CRbuoZP-53" value="&lt;div&gt;id ,&lt;/div&gt;&lt;div&gt;&lt;/div&gt;&lt;span style=&quot;background-color: initial;&quot;&gt;Products&lt;br&gt;Description&lt;br&gt;&lt;br&gt;&lt;/span&gt;" style="align=left;strokeColor=none;fillColor=none;spacingLeft=4;fontSize=12;verticalAlign=top;resizable=0;rotatable=0;part=1;html=1;" vertex="1" parent="czhrimL0n0Uo2CRbuoZP-52">
          <mxGeometry y="50" width="130" height="60" as="geometry" />
        </mxCell>
        <mxCell id="czhrimL0n0Uo2CRbuoZP-17" value="Users_tbl1" style="swimlane;childLayout=stackLayout;horizontal=1;startSize=50;horizontalStack=0;rounded=1;fontSize=14;fontStyle=0;strokeWidth=2;resizeParent=0;resizeLast=1;shadow=0;dashed=0;align=center;arcSize=4;whiteSpace=wrap;html=1;" vertex="1" parent="czhrimL0n0Uo2CRbuoZP-21">
          <mxGeometry x="40" y="120" width="90" height="120" as="geometry">
            <mxRectangle x="40" y="90" width="130" height="50" as="alternateBounds" />
          </mxGeometry>
        </mxCell>
        <mxCell id="czhrimL0n0Uo2CRbuoZP-18" value="&lt;div&gt;id ,&lt;/div&gt;&lt;div&gt;FirstName ,&lt;span style=&quot;&quot;&gt;&lt;/span&gt;&lt;/div&gt;&lt;div&gt;&lt;span style=&quot;background-color: initial;&quot;&gt;LastName ,&lt;/span&gt;&lt;br&gt;&lt;/div&gt;&lt;div&gt;Age&lt;/div&gt;" style="align=left;strokeColor=none;fillColor=none;spacingLeft=4;fontSize=12;verticalAlign=top;resizable=0;rotatable=0;part=1;html=1;" vertex="1" parent="czhrimL0n0Uo2CRbuoZP-17">
          <mxGeometry y="50" width="90" height="70" as="geometry" />
        </mxCell>
        <mxCell id="czhrimL0n0Uo2CRbuoZP-79" value="Books_tb1" style="swimlane;childLayout=stackLayout;horizontal=1;startSize=50;horizontalStack=0;rounded=1;fontSize=14;fontStyle=0;strokeWidth=2;resizeParent=0;resizeLast=1;shadow=0;dashed=0;align=center;arcSize=4;whiteSpace=wrap;html=1;" vertex="1" parent="czhrimL0n0Uo2CRbuoZP-21">
          <mxGeometry x="210" y="324" width="130" height="116" as="geometry">
            <mxRectangle x="40" y="90" width="130" height="50" as="alternateBounds" />
          </mxGeometry>
        </mxCell>
        <mxCell id="czhrimL0n0Uo2CRbuoZP-80" value="&lt;div&gt;&lt;b&gt;id &lt;/b&gt;,&lt;/div&gt;&lt;div&gt;&lt;/div&gt;&lt;div&gt;Category,&lt;/div&gt;&lt;div&gt;Author&lt;/div&gt;&lt;div&gt;&lt;br&gt;&lt;/div&gt;" style="align=left;strokeColor=none;fillColor=none;spacingLeft=4;fontSize=12;verticalAlign=top;resizable=0;rotatable=0;part=1;html=1;" vertex="1" parent="czhrimL0n0Uo2CRbuoZP-79">
          <mxGeometry y="50" width="130" height="120" as="geometry" />
        </mxCell>
        <mxCell id="czhrimL0n0Uo2CRbuoZP-81" value="" style="rounded=0;whiteSpace=wrap;html=1;" vertex="1" parent="czhrimL0n0Uo2CRbuoZP-79">
          <mxGeometry y="170" width="130" height="-54" as="geometry" />
        </mxCell>
        <mxCell id="czhrimL0n0Uo2CRbuoZP-85" value="" style="edgeStyle=orthogonalEdgeStyle;rounded=0;orthogonalLoop=1;jettySize=auto;html=1;exitX=1;exitY=0.125;exitDx=0;exitDy=0;exitPerimeter=0;" edge="1" parent="czhrimL0n0Uo2CRbuoZP-21" source="czhrimL0n0Uo2CRbuoZP-20" target="czhrimL0n0Uo2CRbuoZP-53">
          <mxGeometry relative="1" as="geometry">
            <Array as="points">
              <mxPoint x="210" y="620" />
              <mxPoint x="210" y="620" />
            </Array>
          </mxGeometry>
        </mxCell>
        <mxCell id="czhrimL0n0Uo2CRbuoZP-92" value="" style="edgeStyle=orthogonalEdgeStyle;rounded=0;orthogonalLoop=1;jettySize=auto;html=1;" edge="1" parent="czhrimL0n0Uo2CRbuoZP-21">
          <mxGeometry relative="1" as="geometry">
            <mxPoint x="130" y="184" as="sourcePoint" />
            <mxPoint x="164" y="184" as="targetPoint" />
            <Array as="points">
              <mxPoint x="154" y="184" />
            </Array>
          </mxGeometry>
        </mxCell>
        <mxCell id="czhrimL0n0Uo2CRbuoZP-93" value="" style="edgeStyle=orthogonalEdgeStyle;rounded=0;orthogonalLoop=1;jettySize=auto;html=1;" edge="1" parent="czhrimL0n0Uo2CRbuoZP-21">
          <mxGeometry relative="1" as="geometry">
            <mxPoint x="255" y="179.83999999999997" as="sourcePoint" />
            <mxPoint x="289" y="179.83999999999997" as="targetPoint" />
            <Array as="points">
              <mxPoint x="279" y="179.83999999999997" />
            </Array>
          </mxGeometry>
        </mxCell>
        <mxCell id="czhrimL0n0Uo2CRbuoZP-6" value="Users" style="swimlane;childLayout=stackLayout;horizontal=1;startSize=50;horizontalStack=0;rounded=1;fontSize=14;fontStyle=0;strokeWidth=2;resizeParent=0;resizeLast=1;shadow=0;dashed=0;align=center;arcSize=4;whiteSpace=wrap;html=1;" vertex="1" parent="WIyWlLk6GJQsqaUBKTNV-1">
          <mxGeometry x="40" y="90" width="130" height="170" as="geometry">
            <mxRectangle x="40" y="90" width="130" height="50" as="alternateBounds" />
          </mxGeometry>
        </mxCell>
        <mxCell id="czhrimL0n0Uo2CRbuoZP-7" value="&lt;div&gt;id ,&lt;/div&gt;&lt;div&gt;FirstName ,&lt;span style=&quot;&quot;&gt;&lt;/span&gt;&lt;/div&gt;&lt;div&gt;&lt;span style=&quot;&quot;&gt;MiddleName ,&lt;/span&gt;&lt;/div&gt;&lt;div&gt;LastName ,&lt;/div&gt;&lt;div&gt;Age,&lt;/div&gt;&lt;div&gt;Email,&lt;/div&gt;&lt;div&gt;Company&lt;/div&gt;" style="align=left;strokeColor=none;fillColor=none;spacingLeft=4;fontSize=12;verticalAlign=top;resizable=0;rotatable=0;part=1;html=1;" vertex="1" parent="czhrimL0n0Uo2CRbuoZP-6">
          <mxGeometry y="50" width="130" height="120" as="geometry" />
        </mxCell>
        <mxCell id="czhrimL0n0Uo2CRbuoZP-10" value="Shops" style="swimlane;childLayout=stackLayout;horizontal=1;startSize=50;horizontalStack=0;rounded=1;fontSize=14;fontStyle=0;strokeWidth=2;resizeParent=0;resizeLast=1;shadow=0;dashed=0;align=center;arcSize=4;whiteSpace=wrap;html=1;" vertex="1" parent="WIyWlLk6GJQsqaUBKTNV-1">
          <mxGeometry x="330" y="90" width="130" height="170" as="geometry">
            <mxRectangle x="40" y="90" width="130" height="50" as="alternateBounds" />
          </mxGeometry>
        </mxCell>
        <mxCell id="czhrimL0n0Uo2CRbuoZP-11" value="&lt;div&gt;id ,&lt;/div&gt;&lt;div&gt;Name ,&lt;span style=&quot;&quot;&gt;&lt;/span&gt;&lt;/div&gt;Address&lt;span style=&quot;background-color: initial;&quot;&gt;,&lt;br&gt;Description&lt;br&gt;&lt;br&gt;&lt;/span&gt;" style="align=left;strokeColor=none;fillColor=none;spacingLeft=4;fontSize=12;verticalAlign=top;resizable=0;rotatable=0;part=1;html=1;" vertex="1" parent="czhrimL0n0Uo2CRbuoZP-10">
          <mxGeometry y="50" width="130" height="120" as="geometry" />
        </mxCell>
        <mxCell id="czhrimL0n0Uo2CRbuoZP-13" value="DataBase" style="swimlane;whiteSpace=wrap;html=1;" vertex="1" parent="WIyWlLk6GJQsqaUBKTNV-1">
          <mxGeometry x="30" y="50" width="440" height="230" as="geometry" />
        </mxCell>
        <mxCell id="czhrimL0n0Uo2CRbuoZP-8" value="Books" style="swimlane;childLayout=stackLayout;horizontal=1;startSize=50;horizontalStack=0;rounded=1;fontSize=14;fontStyle=0;strokeWidth=2;resizeParent=0;resizeLast=1;shadow=0;dashed=0;align=center;arcSize=4;whiteSpace=wrap;html=1;" vertex="1" parent="czhrimL0n0Uo2CRbuoZP-13">
          <mxGeometry x="155" y="40" width="130" height="170" as="geometry">
            <mxRectangle x="40" y="90" width="130" height="50" as="alternateBounds" />
          </mxGeometry>
        </mxCell>
        <mxCell id="czhrimL0n0Uo2CRbuoZP-9" value="&lt;div&gt;id ,&lt;/div&gt;&lt;div&gt;BookName ,&lt;span style=&quot;&quot;&gt;&lt;/span&gt;&lt;/div&gt;Publisher&lt;span style=&quot;background-color: initial;&quot;&gt;,&lt;/span&gt;&lt;br&gt;&lt;div&gt;Category,&lt;/div&gt;&lt;div&gt;Author&lt;br&gt;&lt;/div&gt;" style="align=left;strokeColor=none;fillColor=none;spacingLeft=4;fontSize=12;verticalAlign=top;resizable=0;rotatable=0;part=1;html=1;" vertex="1" parent="czhrimL0n0Uo2CRbuoZP-8">
          <mxGeometry y="50" width="130" height="120" as="geometry" />
        </mxCell>
        <mxCell id="czhrimL0n0Uo2CRbuoZP-55" value="Users" style="swimlane;childLayout=stackLayout;horizontal=1;startSize=50;horizontalStack=0;rounded=1;fontSize=14;fontStyle=0;strokeWidth=2;resizeParent=0;resizeLast=1;shadow=0;dashed=0;align=center;arcSize=4;whiteSpace=wrap;html=1;" vertex="1" parent="WIyWlLk6GJQsqaUBKTNV-1">
          <mxGeometry x="540" y="380" width="130" height="170" as="geometry">
            <mxRectangle x="40" y="90" width="130" height="50" as="alternateBounds" />
          </mxGeometry>
        </mxCell>
        <mxCell id="czhrimL0n0Uo2CRbuoZP-56" value="&lt;div&gt;id &lt;b&gt;1-100&lt;/b&gt;,&lt;/div&gt;&lt;div&gt;FirstName ,&lt;span style=&quot;&quot;&gt;&lt;/span&gt;&lt;/div&gt;&lt;div&gt;&lt;span style=&quot;&quot;&gt;MiddleName ,&lt;/span&gt;&lt;/div&gt;&lt;div&gt;LastName ,&lt;/div&gt;&lt;div&gt;Age,&lt;/div&gt;&lt;div&gt;Email,&lt;/div&gt;&lt;div&gt;Company&lt;/div&gt;" style="align=left;strokeColor=none;fillColor=none;spacingLeft=4;fontSize=12;verticalAlign=top;resizable=0;rotatable=0;part=1;html=1;" vertex="1" parent="czhrimL0n0Uo2CRbuoZP-55">
          <mxGeometry y="50" width="130" height="120" as="geometry" />
        </mxCell>
        <mxCell id="czhrimL0n0Uo2CRbuoZP-59" value="DataBase" style="swimlane;whiteSpace=wrap;html=1;" vertex="1" parent="WIyWlLk6GJQsqaUBKTNV-1">
          <mxGeometry x="530" y="340" width="530" height="230" as="geometry" />
        </mxCell>
        <mxCell id="czhrimL0n0Uo2CRbuoZP-69" value="Users_tb2" style="swimlane;childLayout=stackLayout;horizontal=1;startSize=50;horizontalStack=0;rounded=1;fontSize=14;fontStyle=0;strokeWidth=2;resizeParent=0;resizeLast=1;shadow=0;dashed=0;align=center;arcSize=4;whiteSpace=wrap;html=1;" vertex="1" parent="czhrimL0n0Uo2CRbuoZP-59">
          <mxGeometry x="167" y="40" width="130" height="170" as="geometry">
            <mxRectangle x="40" y="90" width="130" height="50" as="alternateBounds" />
          </mxGeometry>
        </mxCell>
        <mxCell id="czhrimL0n0Uo2CRbuoZP-70" value="&lt;div&gt;id &lt;b&gt;101-200&lt;/b&gt;,&lt;/div&gt;&lt;div&gt;FirstName ,&lt;span style=&quot;&quot;&gt;&lt;/span&gt;&lt;/div&gt;&lt;div&gt;&lt;span style=&quot;&quot;&gt;MiddleName ,&lt;/span&gt;&lt;/div&gt;&lt;div&gt;LastName ,&lt;/div&gt;&lt;div&gt;Age,&lt;/div&gt;&lt;div&gt;Email,&lt;/div&gt;&lt;div&gt;Company&lt;/div&gt;" style="align=left;strokeColor=none;fillColor=none;spacingLeft=4;fontSize=12;verticalAlign=top;resizable=0;rotatable=0;part=1;html=1;" vertex="1" parent="czhrimL0n0Uo2CRbuoZP-69">
          <mxGeometry y="50" width="130" height="120" as="geometry" />
        </mxCell>
        <mxCell id="czhrimL0n0Uo2CRbuoZP-94" value="Users" style="swimlane;childLayout=stackLayout;horizontal=1;startSize=50;horizontalStack=0;rounded=1;fontSize=14;fontStyle=0;strokeWidth=2;resizeParent=0;resizeLast=1;shadow=0;dashed=0;align=center;arcSize=4;whiteSpace=wrap;html=1;" vertex="1" parent="czhrimL0n0Uo2CRbuoZP-59">
          <mxGeometry x="330" y="40" width="130" height="170" as="geometry">
            <mxRectangle x="40" y="90" width="130" height="50" as="alternateBounds" />
          </mxGeometry>
        </mxCell>
        <mxCell id="czhrimL0n0Uo2CRbuoZP-95" value="&lt;div&gt;id &lt;b&gt;101-200&lt;/b&gt;,&lt;/div&gt;&lt;div&gt;FirstName ,&lt;span style=&quot;&quot;&gt;&lt;/span&gt;&lt;/div&gt;&lt;div&gt;&lt;span style=&quot;&quot;&gt;MiddleName ,&lt;/span&gt;&lt;/div&gt;&lt;div&gt;LastName ,&lt;/div&gt;&lt;div&gt;Age,&lt;/div&gt;&lt;div&gt;Email,&lt;/div&gt;&lt;div&gt;Company&lt;/div&gt;" style="align=left;strokeColor=none;fillColor=none;spacingLeft=4;fontSize=12;verticalAlign=top;resizable=0;rotatable=0;part=1;html=1;" vertex="1" parent="czhrimL0n0Uo2CRbuoZP-94">
          <mxGeometry y="50" width="130" height="120" as="geometry" />
        </mxCell>
        <mxCell id="czhrimL0n0Uo2CRbuoZP-64" value="Shops" style="swimlane;childLayout=stackLayout;horizontal=1;startSize=50;horizontalStack=0;rounded=1;fontSize=14;fontStyle=0;strokeWidth=2;resizeParent=0;resizeLast=1;shadow=0;dashed=0;align=center;arcSize=4;whiteSpace=wrap;html=1;" vertex="1" parent="WIyWlLk6GJQsqaUBKTNV-1">
          <mxGeometry x="830" y="650" width="130" height="170" as="geometry">
            <mxRectangle x="40" y="90" width="130" height="50" as="alternateBounds" />
          </mxGeometry>
        </mxCell>
        <mxCell id="czhrimL0n0Uo2CRbuoZP-65" value="&lt;div&gt;id ,&lt;/div&gt;&lt;div&gt;Name ,&lt;span style=&quot;&quot;&gt;&lt;/span&gt;&lt;/div&gt;Address&lt;span style=&quot;background-color: initial;&quot;&gt;,&lt;br&gt;Description&lt;br&gt;&lt;br&gt;&lt;/span&gt;" style="align=left;strokeColor=none;fillColor=none;spacingLeft=4;fontSize=12;verticalAlign=top;resizable=0;rotatable=0;part=1;html=1;" vertex="1" parent="czhrimL0n0Uo2CRbuoZP-64">
          <mxGeometry y="50" width="130" height="120" as="geometry" />
        </mxCell>
        <mxCell id="czhrimL0n0Uo2CRbuoZP-66" value="DataBase" style="swimlane;whiteSpace=wrap;html=1;" vertex="1" parent="WIyWlLk6GJQsqaUBKTNV-1">
          <mxGeometry x="530" y="610" width="440" height="230" as="geometry" />
        </mxCell>
        <mxCell id="czhrimL0n0Uo2CRbuoZP-67" value="Books" style="swimlane;childLayout=stackLayout;horizontal=1;startSize=50;horizontalStack=0;rounded=1;fontSize=14;fontStyle=0;strokeWidth=2;resizeParent=0;resizeLast=1;shadow=0;dashed=0;align=center;arcSize=4;whiteSpace=wrap;html=1;" vertex="1" parent="czhrimL0n0Uo2CRbuoZP-66">
          <mxGeometry x="20" y="40" width="130" height="170" as="geometry">
            <mxRectangle x="40" y="90" width="130" height="50" as="alternateBounds" />
          </mxGeometry>
        </mxCell>
        <mxCell id="czhrimL0n0Uo2CRbuoZP-68" value="&lt;div&gt;id ,&lt;/div&gt;&lt;div&gt;BookName ,&lt;span style=&quot;&quot;&gt;&lt;/span&gt;&lt;/div&gt;Publisher&lt;span style=&quot;background-color: initial;&quot;&gt;,&lt;/span&gt;&lt;br&gt;&lt;div&gt;Category,&lt;/div&gt;&lt;div&gt;Author&lt;br&gt;&lt;/div&gt;" style="align=left;strokeColor=none;fillColor=none;spacingLeft=4;fontSize=12;verticalAlign=top;resizable=0;rotatable=0;part=1;html=1;" vertex="1" parent="czhrimL0n0Uo2CRbuoZP-67">
          <mxGeometry y="50" width="130" height="120" as="geometry" />
        </mxCell>
        <mxCell id="czhrimL0n0Uo2CRbuoZP-60" value="Books" style="swimlane;childLayout=stackLayout;horizontal=1;startSize=50;horizontalStack=0;rounded=1;fontSize=14;fontStyle=0;strokeWidth=2;resizeParent=0;resizeLast=1;shadow=0;dashed=0;align=center;arcSize=4;whiteSpace=wrap;html=1;" vertex="1" parent="WIyWlLk6GJQsqaUBKTNV-1">
          <mxGeometry x="1070" y="690" width="130" height="170" as="geometry">
            <mxRectangle x="40" y="90" width="130" height="50" as="alternateBounds" />
          </mxGeometry>
        </mxCell>
        <mxCell id="czhrimL0n0Uo2CRbuoZP-61" value="&lt;div&gt;id ,&lt;/div&gt;&lt;div&gt;BookName ,&lt;span style=&quot;&quot;&gt;&lt;/span&gt;&lt;/div&gt;Publisher&lt;span style=&quot;background-color: initial;&quot;&gt;,&lt;/span&gt;&lt;br&gt;&lt;div&gt;Category,&lt;/div&gt;&lt;div&gt;Author&lt;br&gt;&lt;/div&gt;" style="align=left;strokeColor=none;fillColor=none;spacingLeft=4;fontSize=12;verticalAlign=top;resizable=0;rotatable=0;part=1;html=1;" vertex="1" parent="czhrimL0n0Uo2CRbuoZP-60">
          <mxGeometry y="50" width="130" height="120" as="geometry" />
        </mxCell>
        <mxCell id="czhrimL0n0Uo2CRbuoZP-57" value="Shops" style="swimlane;childLayout=stackLayout;horizontal=1;startSize=50;horizontalStack=0;rounded=1;fontSize=14;fontStyle=0;strokeWidth=2;resizeParent=0;resizeLast=1;shadow=0;dashed=0;align=center;arcSize=4;whiteSpace=wrap;html=1;" vertex="1" parent="WIyWlLk6GJQsqaUBKTNV-1">
          <mxGeometry x="1220" y="690" width="130" height="170" as="geometry">
            <mxRectangle x="40" y="90" width="130" height="50" as="alternateBounds" />
          </mxGeometry>
        </mxCell>
        <mxCell id="czhrimL0n0Uo2CRbuoZP-58" value="&lt;div&gt;id ,&lt;/div&gt;&lt;div&gt;Name ,&lt;span style=&quot;&quot;&gt;&lt;/span&gt;&lt;/div&gt;Address&lt;span style=&quot;background-color: initial;&quot;&gt;,&lt;br&gt;Description&lt;br&gt;&lt;br&gt;&lt;/span&gt;" style="align=left;strokeColor=none;fillColor=none;spacingLeft=4;fontSize=12;verticalAlign=top;resizable=0;rotatable=0;part=1;html=1;" vertex="1" parent="czhrimL0n0Uo2CRbuoZP-57">
          <mxGeometry y="50" width="130" height="120" as="geometry" />
        </mxCell>
      </root>
    </mxGraphModel>
  </diagram>
</mxfile>
